<?xml version="1.0" encoding="UTF-8"?>
<svg version="1.1" xmlns="http://www.w3.org/2000/svg" width="116" height="96">
<path d="M0 0 C13.8905311 -0.70154197 25.25819717 -0.18118767 36.4375 9.1875 C44.34387363 16.93985337 49.46791783 26.41782906 50.25 37.5625 C50 40 50 40 49 41 C47.47595193 41.0983867 45.94738587 41.12798534 44.42016602 41.12939453 C42.95843712 41.13412277 42.95843712 41.13412277 41.46717834 41.13894653 C40.40679855 41.1369223 39.34641876 41.13489807 38.25390625 41.1328125 C36.63173439 41.13424759 36.63173439 41.13424759 34.97679138 41.13571167 C32.68431541 41.13639371 30.39183752 41.13453777 28.09936523 41.13037109 C24.58117345 41.12502836 21.06310963 41.13031264 17.54492188 41.13671875 C15.32291638 41.13605787 13.10091097 41.13477651 10.87890625 41.1328125 C9.29137291 41.13584885 9.29137291 41.13584885 7.67176819 41.13894653 C6.6941301 41.13579437 5.716492 41.13264221 4.70922852 41.12939453 C3.41469505 41.12820114 3.41469505 41.12820114 2.0940094 41.12698364 C0 41 0 41 -2 40 C-2 36.37 -2 32.74 -2 29 C6.91 29 15.82 29 25 29 C23.52605589 20.15633536 19.14874353 14.27863782 12.30078125 8.57421875 C8.16929893 5.74741506 3.63497783 3.84887902 -1 2 C-0.67 1.34 -0.34 0.68 0 0 Z " fill="#4EAE51" transform="translate(8,49)"/>
<path d="M0 0 C1.39412109 -0.02126953 1.39412109 -0.02126953 2.81640625 -0.04296875 C5.51238389 0.19408443 7.13157875 0.81479864 9.4375 2.1875 C8.4375 4.1875 8.4375 4.1875 6.50390625 4.94140625 C5.67761719 5.20824219 4.85132813 5.47507812 4 5.75 C-6.33525053 9.78651416 -12.11953705 16.96149635 -16.6015625 26.87890625 C-16.91867188 27.64074219 -17.23578125 28.40257813 -17.5625 29.1875 C-14.44175426 30.22774858 -12.32352842 30.28856407 -9.0546875 30.25 C-7.98605469 30.24226563 -6.91742188 30.23453125 -5.81640625 30.2265625 C-4.70136719 30.21367188 -3.58632812 30.20078125 -2.4375 30.1875 C-0.22661006 30.16211665 1.98433504 30.14104095 4.1953125 30.125 C5.66701904 30.10759766 5.66701904 30.10759766 7.16845703 30.08984375 C9.4375 30.1875 9.4375 30.1875 10.4375 31.1875 C10.4375 34.8175 10.4375 38.4475 10.4375 42.1875 C-3.4225 42.1875 -17.2825 42.1875 -31.5625 42.1875 C-32.5525 36.5775 -33.5425 30.9675 -34.5625 25.1875 C-34.8925 23.5375 -35.2225 21.8875 -35.5625 20.1875 C-31.8988669 12.06379183 -23.2885946 6.11213437 -15.3125 2.8125 C-10.20690651 0.8937312 -5.45499505 0.0379346 0 0 Z " fill="#4EAD50" transform="translate(97.5625,47.8125)"/>
<path d="M0 0 C-0.66 0.66 -1.32 1.32 -2 2 C-2.68449219 2.69609375 -2.68449219 2.69609375 -3.3828125 3.40625 C-4.51405536 4.52109804 -5.67900437 5.60229676 -6.8671875 6.65625 C-11.17706496 10.61395848 -13.77771193 14.26801462 -16.3125 19.5625 C-19.36804517 25.63854968 -22.51973239 28.20961691 -28.41015625 31.43359375 C-31.04189205 33.02533742 -32.59509339 34.54805356 -34.5 36.9375 C-35.325 37.948125 -36.15 38.95875 -37 40 C-37.99 40 -38.98 40 -40 40 C-39.95509438 28.59397207 -35.77049144 19.01280365 -27.89453125 10.7421875 C-21.27224966 4.65241928 -9.31977608 -3.4526047 0 0 Z " fill="#4CAF4F" transform="translate(96,19)"/>
<path d="M0 0 C7.97110935 0.84454424 13.09259448 5.52711745 18.12890625 11.54296875 C21.23608561 15.83074653 23.86307371 19.76083092 25 25 C24.13671875 28.0703125 24.13671875 28.0703125 22.6875 31.125 C20.44290878 35.92531812 20.44290878 35.92531812 19 41 C15.62028058 40.39647868 13.48160764 39.39444374 11 37 C10.53125 34.3203125 10.53125 34.3203125 10.5 31.125 C9.91853232 19.49564646 5.9506878 9.89797738 0 0 Z " fill="#4BAF4E" transform="translate(30,9)"/>
<path d="M0 0 C-1 2 -1 2 -2.93359375 2.75390625 C-3.75988281 3.02074219 -4.58617187 3.28757812 -5.4375 3.5625 C-13.76042578 6.73882462 -19.64109832 13.06279166 -25 20 C-24.47963877 16.14932689 -23.68672299 14.68672299 -21 12 C-21 10.68 -21 9.36 -21 8 C-19.68 7.67 -18.36 7.34 -17 7 C-17 6.01 -17 5.02 -17 4 C-21.40755174 2.43732256 -23.85446925 3.96756626 -27.890625 5.88671875 C-30.12909453 7.06813322 -32.04538976 8.39442731 -34 10 C-38.55555556 13 -38.55555556 13 -42 13 C-31.81953206 3.23676435 -14.6639661 -8.61379827 0 0 Z " fill="#53AA55" transform="translate(107,50)"/>
<path d="M0 0 C4.8342807 0.48130467 7.54321544 1.70711778 11.3125 4.75 C12.60607422 5.76320313 12.60607422 5.76320313 13.92578125 6.796875 C16.2380431 9.25283674 16.69324954 10.6894101 17 14 C15.02 13.34 13.04 12.68 11 12 C11.47373499 15.12584877 11.95490951 18.25050716 12.4375 21.375 C12.57220703 22.26445312 12.70691406 23.15390625 12.84570312 24.0703125 C12.97783203 24.92109375 13.10996094 25.771875 13.24609375 26.6484375 C13.42676392 27.82672119 13.42676392 27.82672119 13.61108398 29.02880859 C13.92238238 31.06611684 13.92238238 31.06611684 15 33 C17.475 32.505 17.475 32.505 20 32 C21.60031344 35.20062687 20.03173691 37.72271806 19 41 C15.62028058 40.39647868 13.48160764 39.39444374 11 37 C10.53125 34.3203125 10.53125 34.3203125 10.5 31.125 C9.91853232 19.49564646 5.9506878 9.89797738 0 0 Z " fill="#50A651" transform="translate(30,9)"/>
<path d="M0 0 C-0.66 0.66 -1.32 1.32 -2 2 C-2.45632812 2.4640625 -2.91265625 2.928125 -3.3828125 3.40625 C-4.51405536 4.52109804 -5.67900437 5.60229676 -6.8671875 6.65625 C-12.1780617 11.53316171 -15.14523587 16.60884822 -18.1640625 23.14453125 C-20.34765184 26.54070956 -22.29959428 27.5229473 -26 29 C-26.33 27.68 -26.66 26.36 -27 25 C-25.35 24.67 -23.7 24.34 -22 24 C-21.67 22.68 -21.34 21.36 -21 20 C-20.34 20 -19.68 20 -19 20 C-18.89042969 19.26394531 -18.78085938 18.52789062 -18.66796875 17.76953125 C-17.09314587 8.07732865 -17.09314587 8.07732865 -14 4 C-14.66 4 -15.32 4 -16 4 C-16 4.66 -16 5.32 -16 6 C-17.96466413 7.06775224 -19.96855359 8.06553465 -22 9 C-22.66 8.67 -23.32 8.34 -24 8 C-18.01491686 2.98923272 -7.95193321 -2.97955648 0 0 Z " fill="#53A654" transform="translate(96,19)"/>
<path d="M0 0 C11.26187597 -0.56878161 20.85894114 -0.66252017 31 5 C31.495 5.99 31.495 5.99 32 7 C28.75 7.25 28.75 7.25 25 7 C23.62804426 5.70644173 22.28817344 4.37701298 21 3 C18.78141747 3.13641377 18.78141747 3.13641377 17 4 C17 6.31 17 8.62 17 11 C14.12841921 9.59351145 11.34196102 8.08000557 8.5625 6.5 C5.44042594 4.75349322 2.3808388 3.19965248 -1 2 C-0.67 1.34 -0.34 0.68 0 0 Z " fill="#54AA55" transform="translate(8,49)"/>
<path d="M0 0 C11.26187597 -0.56878161 20.85894114 -0.66252017 31 5 C31.495 5.99 31.495 5.99 32 7 C28.75 7.25 28.75 7.25 25 7 C24.4328125 6.3503125 23.865625 5.700625 23.28125 5.03125 C20.05442068 2.15804581 16.87478833 2.33016373 12.75 2.25 C12.00492188 2.22035156 11.25984375 2.19070312 10.4921875 2.16015625 C8.66203328 2.0897657 6.83101231 2.04258168 5 2 C5.33 2.66 5.66 3.32 6 4 C3.69 3.34 1.38 2.68 -1 2 C-0.67 1.34 -0.34 0.68 0 0 Z " fill="#5AA258" transform="translate(8,49)"/>
<path d="M0 0 C0.33 0 0.66 0 1 0 C1.125 6.75 1.125 6.75 0 9 C3.24849977 7.27773504 3.24849977 7.27773504 4 4 C4.66 4 5.32 4 6 4 C6.33 3.01 6.66 2.02 7 1 C8.32 1.66 9.64 2.32 11 3 C10.36191406 3.55429687 9.72382812 4.10859375 9.06640625 4.6796875 C8.24011719 5.40414062 7.41382812 6.12859375 6.5625 6.875 C5.73878906 7.59429687 4.91507813 8.31359375 4.06640625 9.0546875 C1.94017845 10.83238745 1.94017845 10.83238745 1 13 C0.01 13 -0.98 13 -2 13 C-1.85915204 11.20793453 -1.71216299 9.41635083 -1.5625 7.625 C-1.48128906 6.62726562 -1.40007813 5.62953125 -1.31640625 4.6015625 C-1 2 -1 2 0 0 Z " fill="#599F55" transform="translate(58,46)"/>
<path d="M0 0 C6.51550942 5.79156393 9.35965939 12.52490686 11 21 C11.1875 24.4375 11.1875 24.4375 11 27 C10 28 10 28 7.4375 28.0625 C6.633125 28.041875 5.82875 28.02125 5 28 C5.99 27.34 6.98 26.68 8 26 C9.09698845 18.59532795 6.31980691 12.54609814 3 6 C2.0029912 4.6644285 1.0037638 3.33050216 0 2 C0 1.34 0 0.68 0 0 Z " fill="#51914C" transform="translate(47,62)"/>
<path d="M0 0 C0 0.66 0 1.32 0 2 C-1.6875 3.33203125 -1.6875 3.33203125 -4 4.8125 C-4.81726563 5.33714844 -5.63453125 5.86179687 -6.4765625 6.40234375 C-7.30929688 6.92957031 -8.14203125 7.45679688 -9 8 C-9.75023438 8.49628906 -10.50046875 8.99257813 -11.2734375 9.50390625 C-12.31371094 10.18259766 -12.31371094 10.18259766 -13.375 10.875 C-14.00148438 11.28492188 -14.62796875 11.69484375 -15.2734375 12.1171875 C-17 13 -17 13 -20 13 C-6.44444444 0 -6.44444444 0 0 0 Z " fill="#599E59" transform="translate(85,50)"/>
<path d="M0 0 C3.24146948 3.13386883 5.45057756 5.69604877 7 10 C6.24554783 13.56650118 5.58006277 15.41993723 3 18 C3 16.35 3 14.7 3 13 C2.34 12.67 1.68 12.34 1 12 C0.5859375 9.27734375 0.5859375 9.27734375 0.375 5.9375 C0.30023438 4.83277344 0.22546875 3.72804688 0.1484375 2.58984375 C0.09945312 1.73519531 0.05046875 0.88054688 0 0 Z " fill="#50A851" transform="translate(48,22)"/>
<path d="M0 0 C2.875 0.25 2.875 0.25 6 1 C7.375 3.0625 7.375 3.0625 8 5 C7.34 5 6.68 5 6 5 C6.495 5.70125 6.99 6.4025 7.5 7.125 C9.1936681 10.37119719 9.25162315 12.39340156 9 16 C7.36978529 13.55467794 5.92001943 11.12979122 4.5 8.5625 C4.0771875 7.80066406 3.654375 7.03882813 3.21875 6.25390625 C2.10195491 4.18855123 1.03649669 2.10658355 0 0 Z " fill="#579C56" transform="translate(30,9)"/>
<path d="M0 0 C0.33 1.32 0.66 2.64 1 4 C1.66 4 2.32 4 3 4 C3 9.28 3 14.56 3 20 C2.67 20 2.34 20 2 20 C1.47008907 16.8556249 0.95259982 13.70933252 0.4375 10.5625 C0.28603516 9.66466797 0.13457031 8.76683594 -0.02148438 7.84179688 C-0.16005859 6.98779297 -0.29863281 6.13378906 -0.44140625 5.25390625 C-0.57232666 4.46314697 -0.70324707 3.6723877 -0.83813477 2.85766602 C-0.89155029 2.24463623 -0.94496582 1.63160645 -1 1 C-0.67 0.67 -0.34 0.34 0 0 Z " fill="#51914D" transform="translate(64,70)"/>
<path d="M0 0 C0.66 0.33 1.32 0.66 2 1 C1.38511719 1.73605469 0.77023438 2.47210937 0.13671875 3.23046875 C-0.67152344 4.20628906 -1.47976562 5.18210937 -2.3125 6.1875 C-3.11300781 7.15042969 -3.91351563 8.11335938 -4.73828125 9.10546875 C-6.73111988 11.65588917 -8.41061246 14.18642401 -10 17 C-10.33 16.34 -10.66 15.68 -11 15 C-8.28419455 9.23146586 -4.77235098 4.21089792 0 0 Z " fill="#559C54" transform="translate(70,28)"/>
<path d="M0 0 C0.33 0 0.66 0 1 0 C1 1.65 1 3.3 1 5 C1.598125 5.28875 2.19625 5.5775 2.8125 5.875 C5 7 5 7 8 9 C8 9.66 8 10.32 8 11 C4.63769791 10.39958891 2.35500791 9.52322276 0 7 C-0.25 3.3125 -0.25 3.3125 0 0 Z " fill="#629F5C" transform="translate(41,39)"/>
<path d="M0 0 C-2.85276137 2.93200474 -5.65079784 5.64315404 -9 8 C-7.79618552 5.50638429 -6.54571278 3.31856917 -5 1 C-5.66 0.67 -6.32 0.34 -7 0 C-3.86650268 -1.04449911 -3.01031744 -0.93423645 0 0 Z " fill="#679E60" transform="translate(96,19)"/>
<path d="M0 0 C3.96 0 7.92 0 12 0 C12 0.33 12 0.66 12 1 C9.69 1.33 7.38 1.66 5 2 C5.33 2.66 5.66 3.32 6 4 C3.69 3.34 1.38 2.68 -1 2 C-0.67 1.34 -0.34 0.68 0 0 Z " fill="#6AA969" transform="translate(8,49)"/>
<path d="M0 0 C3.32643967 2.98232523 5.29152862 5.86370087 7 10 C6.67 10.66 6.34 11.32 6 12 C3 8.25 3 8.25 3 6 C2.34 6 1.68 6 1 6 C0.67 4.02 0.34 2.04 0 0 Z " fill="#569A57" transform="translate(48,22)"/>
<path d="M0 0 C3.64566186 0.98531402 4.80178732 1.68946681 6.875 4.9375 C8 8 8 8 7 11 C6.01941648 9.54261898 5.04057868 8.08406325 4.0625 6.625 C3.51722656 5.81289062 2.97195312 5.00078125 2.41015625 4.1640625 C1 2 1 2 0 0 Z " fill="#599F57" transform="translate(25,61)"/>
<path d="M0 0 C5.53846154 -0.36923077 5.53846154 -0.36923077 7.875 1.5 C8.24625 1.995 8.6175 2.49 9 3 C5.625 3.1875 5.625 3.1875 2 3 C1.34 2.01 0.68 1.02 0 0 Z " fill="#4DB051" transform="translate(12,50)"/>
<path d="M0 0 C1.98 0.66 3.96 1.32 6 2 C5.67 2.66 5.34 3.32 5 4 C1.9375 4.625 1.9375 4.625 -1 5 C-0.67 3.35 -0.34 1.7 0 0 Z " fill="#6BAB66" transform="translate(101,48)"/>
<path d="M0 0 C0.66 0.33 1.32 0.66 2 1 C-0.97 4.96 -0.97 4.96 -4 9 C-4.33 7.68 -4.66 6.36 -5 5 C-2.5625 2.25 -2.5625 2.25 0 0 Z " fill="#5BA058" transform="translate(87,61)"/>
<path d="M0 0 C0.99 0.33 1.98 0.66 3 1 C2.34 2.32 1.68 3.64 1 5 C-0.65 5 -2.3 5 -4 5 C-3.67 4.34 -3.34 3.68 -3 3 C-2.01 3 -1.02 3 0 3 C0 2.01 0 1.02 0 0 Z " fill="#48B44C" transform="translate(99,48)"/>
</svg>
